<svg width="102" height="93" viewBox="0 0 102 93" fill="none" xmlns="http://www.w3.org/2000/svg">
<path fill-rule="evenodd" clip-rule="evenodd" d="M76.958 0.4375C79.7373 0.4375 82.3327 1.82654 83.8744 4.13903L100.923 29.7123C101.967 31.2779 102.092 33.2828 101.25 34.9657C91.9208 53.6247 78.9554 70.2302 63.1162 83.8066L54.8004 90.935C52.6135 92.8093 49.3868 92.8093 47.1999 90.935L38.8841 83.8066C23.0448 70.2302 10.0796 53.6247 0.750168 34.9657C-0.0915298 33.2828 0.0333939 31.2779 1.07697 29.7123L18.1257 4.13903C19.6675 1.82654 22.2629 0.4375 25.0421 0.4375H76.958ZM77.946 8.09127C77.7258 7.76095 77.355 7.5625 76.958 7.5625H65.8439L74.9407 29.3949C75.1502 29.8978 75.3084 30.4164 75.415 30.9431C78.7582 30.6943 82.0985 30.3943 85.4349 30.0431L92.112 29.3403L77.946 8.09127ZM92.4265 36.4715C83.9078 52.099 72.6591 66.0891 59.2022 77.7732L74.0483 38.1843C78.0969 37.906 82.1417 37.554 86.1807 37.1289L92.4265 36.4715ZM66.2722 38.6284L50.9999 79.354L35.7277 38.6284C45.9041 39.0911 56.0962 39.0911 66.2722 38.6284ZM27.952 38.1843L42.7976 77.7732C29.3409 66.0891 18.0924 52.099 9.57376 36.4715L15.8195 37.1289C19.8585 37.554 23.9031 37.906 27.952 38.1843ZM9.88821 29.3403L16.5653 30.0431C19.9017 30.3943 23.2419 30.6943 26.5854 30.9431C26.6918 30.4164 26.85 29.8978 27.0595 29.3949L36.1562 7.5625H25.0421C24.645 7.5625 24.2745 7.76095 24.0541 8.09132L9.88821 29.3403ZM33.9394 31.4077C45.3056 31.998 56.6947 31.998 68.0607 31.4077L58.1249 7.5625H43.8749L33.9394 31.4077Z" fill="#966CCB"/>
</svg>
